<svg xmlns="http://www.w3.org/2000/svg" width="1000" height="1000" viewBox="0 0 1000 1000">
  <metadata><?xpacket begin="﻿" id="W5M0MpCehiHzreSzNTczkc9d"?>
<x:xmpmeta xmlns:x="adobe:ns:meta/" x:xmptk="Adobe XMP Core 5.6-c138 79.159824, 2016/09/14-01:09:01        ">
   <rdf:RDF xmlns:rdf="http://www.w3.org/1999/02/22-rdf-syntax-ns#">
      <rdf:Description rdf:about=""/>
   </rdf:RDF>
</x:xmpmeta>
                                                                                                    
                                                                                                    
                                                                                                    
                                                                                                    
                                                                                                    
                                                                                                    
                                                                                                    
                                                                                                    
                                                                                                    
                                                                                                    
                                                                                                    
                                                                                                    
                                                                                                    
                                                                                                    
                                                                                                    
                                                                                                    
                                                                                                    
                                                                                                    
                                                                                                    
                                                                                                    
                           
<?xpacket end="w"?></metadata>
<defs>
    <style>
      .cls-1 {
        fill-rule: evenodd;
      }
    </style>
  </defs>
  <path class="cls-1" d="M388.236,747.093c65.689,0,118.941,53.481,118.941,119.453S453.925,986,388.236,986,269.3,932.519,269.3,866.546,322.546,747.093,388.236,747.093Zm429.8-238.864C883.738,508.229,937,561.7,937,627.661S883.738,747.093,818.037,747.093,699.074,693.621,699.074,627.661,752.335,508.229,818.037,508.229ZM626.14,15C691.841,15,745.1,68.481,745.1,134.454S691.841,253.907,626.14,253.907,507.177,200.426,507.177,134.454,560.438,15,626.14,15ZM182.963,253.907c65.7,0,118.963,53.472,118.963,119.432S248.664,492.77,182.963,492.77,64,439.3,64,373.339,117.262,253.907,182.963,253.907Z"/>
  <path class="cls-1" d="M183.2,320.776l374.85-210.762,42.941,77L226.14,397.779Zm209.137,502.84L767.185,612.854l42.941,77L435.276,900.618Zm309.88-666.952,159.27,400.645-81.627,32.718L620.588,189.381ZM212.952,397.487L372.223,798.132,290.6,830.85,131.325,430.205Z"/>
</svg>
