<?xml version="1.0" encoding="utf-8"?>
<!-- Generator: Adobe Illustrator 19.1.0, SVG Export Plug-In . SVG Version: 6.00 Build 0)  -->
<svg version="1.1" id="Layer_1" xmlns="http://www.w3.org/2000/svg" xmlns:xlink="http://www.w3.org/1999/xlink" x="0px" y="0px"
	 viewBox="194 -104 1000 1000" style="enable-background:new 194 -104 1000 1000;" xml:space="preserve">
<style type="text/css">
	.st0{opacity:0.8;fill:#000414;}
</style>
<path class="st0" d="M701,756.3l-71.7,40.3l-42.9-77l77.8-43.7c-21.3-20.3-50.1-32.8-81.9-32.8c-11.9,0-23.4,1.8-34.3,5l18.3,46
	l-81.6,32.7l-7.8-19.6c-8.6,16.5-13.5,35.4-13.5,55.3c0,66,53.3,119.5,118.9,119.5c65.7,0,118.9-53.5,118.9-119.5
	C701.2,760.5,701.1,758.4,701,756.3z M1037,406.9l18.5,46.4L973.9,486l-25.2-63.4c-33.4,21.1-55.6,58.5-55.6,101.1
	c0,7.6,0.7,15.1,2.1,22.3l66-37.1l43,77l-61.7,34.7c19.6,14.2,43.6,22.6,69.6,22.6c65.7,0,119-53.5,119-119.4
	C1131,466.3,1090.7,418.4,1037,406.9z M820.1-89c-65.7,0-119,53.5-119,119.5c0,1.4,0,2.8,0.1,4.1L752,6L795,83l-58.2,32.7
	c21.5,21.2,50.9,34.2,83.3,34.2c6.6,0,13.1-0.5,19.5-1.6l-25-62.9l81.6-32.7l19.5,49c14.7-19.9,23.4-44.5,23.4-71.2
	C939.1-35.5,885.8-89,820.1-89z"/>
<path class="st0" d="M495.9,269.3c0,43.5-23.2,81.6-57.8,102.5L407,293.5l-81.6,32.7l23.5,59.2c-52.1-12.7-90.9-59.8-90.9-116.1
	c0-66,53.3-119.4,119-119.4c27.8,0,53.4,9.6,73.6,25.6l-73.4,41.3l42.9,77l74.5-41.9C495.5,257.6,495.9,263.4,495.9,269.3z"/>
<path class="st0" d="M895.2,546L664.1,675.9c21.4,20.4,35.3,48.8,36.9,80.4l241.4-135.8C918.3,603,900.9,576.5,895.2,546z
	 M915.7,101.6c-18,24.3-45,41.6-76.1,46.7l109,274.3c18.3-11.6,40.1-18.4,63.4-18.4c8.6,0,16.9,0.9,25,2.7L915.7,101.6z
	 M438.1,371.8c-17.9,10.8-38.8,17-61.1,17c-9.7,0-19.1-1.2-28.1-3.4l127.9,321.8c14.7-28.2,40.3-49.8,71.1-59.1L438.1,371.8z"/>
<path class="st0" d="M566.2,694.1l-81.6,32.7l-7.8-19.6c14.7-28.2,40.3-49.8,71.1-59.1L566.2,694.1z"/>
<path class="st0" d="M701,756.3l-71.7,40.3l-42.9-77l77.8-43.7C685.5,696.3,699.4,724.7,701,756.3z"/>
<path class="st0" d="M1004.1,585.8l-61.7,34.7c-24.2-17.5-41.6-44-47.3-74.6l66-37.1L1004.1,585.8z"/>
<path class="st0" d="M1055.5,453.3L973.9,486l-25.2-63.4c18.3-11.6,40.1-18.4,63.4-18.4c8.6,0,16.9,0.9,25,2.7L1055.5,453.3z"/>
<path class="st0" d="M915.7,101.6c-18,24.3-45,41.6-76.1,46.7l-25-62.9l81.6-32.7L915.7,101.6z"/>
<path class="st0" d="M438.1,371.8c-17.9,10.8-38.8,17-61.1,17c-9.7,0-19.1-1.2-28.1-3.4l-23.5-59.2l81.6-32.7L438.1,371.8z"/>
<path class="st0" d="M494.7,251.9l-74.5,41.9l-42.9-77l73.4-41.3C473.9,194,490.2,221,494.7,251.9z"/>
<path class="st0" d="M795,83l-58.2,32.7c-21.1-20.8-34.5-49.4-35.6-81.1L752,6L795,83z"/>
<path class="st0" d="M736.8,115.7L494.7,251.9c-4.5-30.9-20.8-57.9-44.1-76.4l250.7-141C702.3,66.3,715.7,94.9,736.8,115.7z"/>
</svg>
