<?xml version="1.0" encoding="utf-8"?>
<!-- Generator: Adobe Illustrator 19.1.0, SVG Export Plug-In . SVG Version: 6.00 Build 0)  -->
<svg version="1.1" id="Layer_1" xmlns="http://www.w3.org/2000/svg" xmlns:xlink="http://www.w3.org/1999/xlink" x="0px" y="0px"
	 viewBox="194 -104 1000 1000" style="enable-background:new 194 -104 1000 1000;" xml:space="preserve">
<style type="text/css">
	.st0{opacity:0.8;}
	.st1{fill:#000414;}
</style>
<g class="st0">
	<g>
		<g>
			<path class="st1" d="M1023.8,402.4L1023.8,402.4c0,0-0.1,0-0.1,0l0,0C1023.7,402.4,1023.8,402.4,1023.8,402.4z"/>
			<path class="st1" d="M1023.8,402.4l18.4,46.4l-18.5-46.4c-3.5-0.8-7-1.4-10.6-1.8c3.6,0.4,7.1,1,10.6,1.8L902.4,97.2
				c14.7-19.9,23.4-44.5,23.4-71.2c0-66-53.3-119.5-119-119.5S687.8-40,687.8,26c0,1.4,0,2.8,0.1,4.1L688,30v0l-0.1,0.1v0L437.3,171
				c-20.2-16-45.8-25.6-73.6-25.6c-65.7,0-119,53.4-119,119.4c0,56.3,38.8,103.4,90.9,116.1l127.9,321.8l0,0.1c0,0,0-0.1,0.1-0.1
				l7.8,19.6l81.5-32.7l-18.3-46L424.8,367.3c34.6-20.9,57.8-59,57.8-102.5c0-5.9-0.4-11.7-1.3-17.3l0.1,0l242.1-136.2
				c21.5,21.2,50.9,34.2,83.3,34.2c6.6,0,13.1-0.5,19.5-1.6l109,274.3c10.5-6.6,22-11.7,34.4-14.8c-12.3,3.1-23.9,8.2-34.3,14.8
				c-33.4,21.1-55.6,58.5-55.6,101.1c0,7.5,0.7,15,2.1,22.2l-0.1,0c0,0,0,0.1,0,0.1l-231,129.8c-21.3-20.3-50.1-32.8-81.9-32.8
				c-11.9,0-23.4,1.8-34.3,5l18.3,46l-81.6,32.7l0,0l-0.1,0l-7.8-19.5c-8.6,16.5-13.4,35.3-13.4,55.2c0,66,53.3,119.5,118.9,119.5
				c65.7,0,118.9-53.5,118.9-119.5c0-2-0.1-4.1-0.2-6.2L929.1,616l61.7-34.7l-42.9-76.9l0,0l43,77l-61.7,34.7
				c19.6,14.2,43.6,22.6,69.6,22.6c65.7,0,119-53.5,119-119.4C1117.7,461.8,1077.5,414,1023.8,402.4z M902.4,97.1l-19.5-48.9
				L902.4,97.1C902.4,97.1,902.4,97.1,902.4,97.1z"/>
		</g>
	</g>
</g>
</svg>
